<?xml version="1.0" encoding="UTF-8" standalone="no"?>
<!-- Created with Inkscape (http://www.inkscape.org/) -->

<svg
   xmlns:dc="http://purl.org/dc/elements/1.1/"
   xmlns:cc="http://creativecommons.org/ns#"
   xmlns:rdf="http://www.w3.org/1999/02/22-rdf-syntax-ns#"
   xmlns:svg="http://www.w3.org/2000/svg"
   xmlns="http://www.w3.org/2000/svg"
   xmlns:xlink="http://www.w3.org/1999/xlink"
   xmlns:sodipodi="http://sodipodi.sourceforge.net/DTD/sodipodi-0.dtd"
   xmlns:inkscape="http://www.inkscape.org/namespaces/inkscape"
   version="1.1"
   width="181.0975"
   height="181.39375"
   id="svg2816"
   xml:space="preserve"
   inkscape:version="0.48.1 r9760"
   sodipodi:docname="Flattr.svg"><metadata
     id="metadata35"><rdf:RDF><cc:Work
         rdf:about=""><dc:format>image/svg+xml</dc:format><dc:type
           rdf:resource="http://purl.org/dc/dcmitype/StillImage" /><dc:title>Flattr-Logo</dc:title></cc:Work></rdf:RDF></metadata><sodipodi:namedview
     pagecolor="#ffffff"
     bordercolor="#666666"
     borderopacity="1"
     objecttolerance="10"
     gridtolerance="10"
     guidetolerance="10"
     inkscape:pageopacity="0"
     inkscape:pageshadow="2"
     inkscape:window-width="1280"
     inkscape:window-height="776"
     id="namedview33"
     showgrid="false"
     fit-margin-top="0"
     fit-margin-left="0"
     fit-margin-right="0"
     fit-margin-bottom="0"
     inkscape:zoom="0.57764706"
     inkscape:cx="420.7154"
     inkscape:cy="90.59359"
     inkscape:window-x="0"
     inkscape:window-y="24"
     inkscape:window-maximized="1"
     inkscape:current-layer="svg2816" /><title
     id="title2901">Flattr-Logo</title><defs
     id="defs2820"><linearGradient
       x1="0"
       y1="0"
       x2="1"
       y2="0"
       id="linearGradient2840"
       gradientUnits="userSpaceOnUse"
       gradientTransform="matrix(0,134.752,134.752,0,150.75,247.73)"
       spreadMethod="pad"><stop
         id="stop2842"
         style="stop-color:#ea5f29;stop-opacity:1"
         offset="0" /><stop
         id="stop2844"
         style="stop-color:#fabd1f;stop-opacity:1"
         offset="1" /></linearGradient><linearGradient
       x1="0"
       y1="0"
       x2="1"
       y2="0"
       id="linearGradient2860"
       gradientUnits="userSpaceOnUse"
       gradientTransform="matrix(0,-134.752,-134.752,0,160.875,372.121)"
       spreadMethod="pad"><stop
         id="stop2862"
         style="stop-color:#abd33c;stop-opacity:1"
         offset="0" /><stop
         id="stop2864"
         style="stop-color:#6cb02f;stop-opacity:1"
         offset="1" /></linearGradient><clipPath
       id="clipPath2872"><path
         d="m 0,595.276 841.89,0 L 841.89,0 0,0 0,595.276 z"
         id="path2874"
         inkscape:connector-curvature="0" /></clipPath><linearGradient
       inkscape:collect="always"
       xlink:href="#linearGradient2840"
       id="linearGradient3031"
       gradientUnits="userSpaceOnUse"
       gradientTransform="matrix(0,134.752,134.752,0,150.75,247.73)"
       spreadMethod="pad"
       x1="0"
       y1="0"
       x2="1"
       y2="0" /><linearGradient
       inkscape:collect="always"
       xlink:href="#linearGradient2860"
       id="linearGradient3033"
       gradientUnits="userSpaceOnUse"
       gradientTransform="matrix(0,-134.752,-134.752,0,160.875,372.121)"
       spreadMethod="pad"
       x1="0"
       y1="0"
       x2="1"
       y2="0" /></defs><g
     id="g2828"
     transform="matrix(1.25,0,0,-1.25,-104.21625,478.105)"
     inkscape:export-filename="/home/erik/projekt/Tagbiljetter/res/drawable-hdpi/donate_flattr.png"
     inkscape:export-xdpi="53.669998"
     inkscape:export-ydpi="53.669998"><g
       id="g2830"><g
         id="g2836"><g
           id="g2838"><path
             inkscape:connector-curvature="0"
             style="fill:url(#linearGradient3031);stroke:none"
             id="path2846"
             d="m 135.377,382.484 c -34.431,0 -52.004,-19.863 -52.004,-56.949 l 0,0 0,-25.906 0,-51.899 33.728,33.817 0,39.523 c 0,15.364 4.065,25.141 17.702,27.336 l 0,0 c 4.764,0.933 14.679,0.606 20.983,0.606 l 0,0 0,-23.467 c 0,-0.214 0.029,-0.596 0.084,-0.792 l 0,0 c 0.264,-0.95 1.122,-1.646 2.138,-1.648 l 0,0 c 0.575,-0.001 1.113,0.298 1.668,0.846 l 0,0 58.45,58.524 -39.234,0.009 -43.515,0 z" /></g></g></g></g><g
     id="g2848"
     transform="matrix(1.25,0,0,-1.25,-104.21625,478.105)"
     inkscape:export-filename="/home/erik/projekt/Tagbiljetter/res/drawable-hdpi/donate_flattr.png"
     inkscape:export-xdpi="53.669998"
     inkscape:export-ydpi="53.669998"><g
       id="g2850"><g
         id="g2856"><g
           id="g2858"><path
             inkscape:connector-curvature="0"
             style="fill:url(#linearGradient3033);stroke:none"
             id="path2866"
             d="m 194.523,338.305 0,-39.522 c 0,-15.364 -4.066,-25.142 -17.702,-27.337 l 0,0 c -4.764,-0.932 -14.679,-0.605 -20.983,-0.605 l 0,0 0,23.466 c 0,0.213 -0.029,0.596 -0.084,0.792 l 0,0 c -0.264,0.951 -1.121,1.646 -2.138,1.648 l 0,0 c -0.575,0.002 -1.113,-0.298 -1.668,-0.845 l 0,0 -58.45,-58.524 39.234,-0.009 43.515,0 c 34.431,0 52.004,19.863 52.004,56.948 l 0,0 0,25.907 0,51.898 -33.728,-33.817 z" /></g></g></g></g></svg>