<?xml version="1.0" encoding="UTF-8" standalone="no"?>
<!-- Created with Inkscape (http://www.inkscape.org/) -->

<svg
   xmlns:dc="http://purl.org/dc/elements/1.1/"
   xmlns:cc="http://creativecommons.org/ns#"
   xmlns:rdf="http://www.w3.org/1999/02/22-rdf-syntax-ns#"
   xmlns:svg="http://www.w3.org/2000/svg"
   xmlns="http://www.w3.org/2000/svg"
   xmlns:sodipodi="http://sodipodi.sourceforge.net/DTD/sodipodi-0.dtd"
   xmlns:inkscape="http://www.inkscape.org/namespaces/inkscape"
   width="103"
   height="103"
   id="svg2"
   sodipodi:version="0.32"
   inkscape:version="0.48.1 r9760"
   version="1.0"
   sodipodi:docname="logo_västtrafik.svg"
   inkscape:output_extension="org.inkscape.output.svg.inkscape">
  <defs
     id="defs4">
    <inkscape:perspective
       sodipodi:type="inkscape:persp3d"
       inkscape:vp_x="0 : 526.18109 : 1"
       inkscape:vp_y="0 : 1000 : 0"
       inkscape:vp_z="744.09448 : 526.18109 : 1"
       inkscape:persp3d-origin="372.04724 : 350.78739 : 1"
       id="perspective10" />
    <inkscape:perspective
       id="perspective2390"
       inkscape:persp3d-origin="372.04724 : 350.78739 : 1"
       inkscape:vp_z="744.09448 : 526.18109 : 1"
       inkscape:vp_y="0 : 1000 : 0"
       inkscape:vp_x="0 : 526.18109 : 1"
       sodipodi:type="inkscape:persp3d" />
    <clipPath
       id="clipPath2493"
       clipPathUnits="userSpaceOnUse">
      <path
         id="path2495"
         d="m 0.06,148.28502 675.47101,0 L 675.53101,0 0.06,0 l 0,148.28502 z"
         inkscape:connector-curvature="0" />
    </clipPath>
    <clipPath
       id="clipPath2455"
       clipPathUnits="userSpaceOnUse">
      <path
         id="path2457"
         d="m -186.33113,-87.7502 0,131.09477 367.05481,0 0,-131.09477 -367.05481,0 z"
         inkscape:connector-curvature="0" />
    </clipPath>
    <clipPath
       id="clipPath2433"
       clipPathUnits="userSpaceOnUse">
      <path
         id="path2435"
         d="m 0,0 419.52756,0 0,595.27557 L 0,595.27557 0,0 z"
         inkscape:connector-curvature="0" />
    </clipPath>
    <inkscape:perspective
       id="perspective2425"
       inkscape:persp3d-origin="372.04724 : 350.78739 : 1"
       inkscape:vp_z="744.09448 : 526.18109 : 1"
       inkscape:vp_y="0 : 1000 : 0"
       inkscape:vp_x="0 : 526.18109 : 1"
       sodipodi:type="inkscape:persp3d" />
    <clipPath
       id="clipPath2493-5"
       clipPathUnits="userSpaceOnUse">
      <path
         inkscape:connector-curvature="0"
         id="path2495-6"
         d="m 0.06,148.28502 675.47101,0 L 675.53101,0 0.06,0 l 0,148.28502 z" />
    </clipPath>
  </defs>
  <sodipodi:namedview
     id="base"
     pagecolor="#ffffff"
     bordercolor="#666666"
     borderopacity="1.0"
     gridtolerance="10000"
     guidetolerance="10"
     objecttolerance="10"
     inkscape:pageopacity="0.0"
     inkscape:pageshadow="2"
     inkscape:zoom="2.8"
     inkscape:cx="75.465632"
     inkscape:cy="27.606875"
     inkscape:document-units="px"
     inkscape:current-layer="layer1"
     showgrid="false"
     inkscape:window-width="1280"
     inkscape:window-height="776"
     inkscape:window-x="0"
     inkscape:window-y="24"
     fit-margin-top="0"
     fit-margin-left="0"
     fit-margin-right="0"
     fit-margin-bottom="0"
     inkscape:window-maximized="1" />
  <metadata
     id="metadata7">
    <rdf:RDF>
      <cc:Work
         rdf:about="">
        <dc:format>image/svg+xml</dc:format>
        <dc:type
           rdf:resource="http://purl.org/dc/dcmitype/StillImage" />
      </cc:Work>
    </rdf:RDF>
  </metadata>
  <g
     inkscape:label="Layer 1"
     inkscape:groupmode="layer"
     id="layer1"
     transform="translate(-390.78052,-482.68146)">
    <g
       id="g3120"
       transform="translate(-35.107913,-6.990405)">
      <path
         inkscape:connector-curvature="0"
         d="m 482.77655,578.5386 c 20.63617,0 37.36647,-16.73083 37.36647,-37.3672 0,-20.63654 -16.7303,-37.36627 -37.36647,-37.36627 -20.63686,0 -37.36679,16.72973 -37.36679,37.36627 0,20.63637 16.72993,37.3672 37.36679,37.3672"
         style="fill:#2b4578;fill-opacity:1;fill-rule:nonzero;stroke:none"
         id="path2481" />
      <path
         inkscape:connector-curvature="0"
         d="m 485.17551,508.39193 c 0,0 -0.24191,32.8602 -30.88472,48.40372 0,0 -8.74939,-13.84992 -0.726,-30.27349 0,0 8.49392,-19.29938 31.61072,-18.13023"
         style="fill:#3c72b7;fill-opacity:1;fill-rule:nonzero;stroke:none"
         id="path2483" />
      <path
         inkscape:connector-curvature="0"
         d="m 490.01378,509.07756 c 0,0 24.35254,4.83831 25.46133,31.79804 0,0 0.66526,11.82692 -7.72106,21.1005 0,0 -8.81672,11.79983 -24.94878,11.5957 0,0 -15.2898,0.94347 -25.91412,-12.70446 0,0 30.17935,-12.27688 33.12263,-51.78978"
         style="fill:#c7d629;fill-opacity:1;fill-rule:nonzero;stroke:none"
         id="path2485" />
      <path
         inkscape:connector-curvature="0"
         d="m 426.16822,515.83091 c 0,0 39.33129,14.18568 66.59126,51.85636 l -0.96513,-12.06491 c 0,0 -14.01735,-35.0607 -65.62613,-39.79145"
         style="fill:#2b4578;fill-opacity:1;fill-rule:nonzero;stroke:none"
         id="path2487" />
      <g
         id="g2489"
         transform="matrix(0.5039853,0,0,-0.5039853,426.10742,578.5386)">
        <g
           id="g2491"
           clip-path="url(#clipPath2493-5)">
          <path
             inkscape:connector-curvature="0"
             d="m 125.04201,80.38364 c 0,0 30.24,29.75979 78.40001,26.00003 0,0 -38.88001,-3.60013 -70.40001,-36.71973 l -8,10.7197"
             style="fill:#2b4578;fill-opacity:1;fill-rule:nonzero;stroke:none"
             id="path2497" />
          <path
             inkscape:connector-curvature="0"
             d="m 132.56801,74.88855 c 0,0 28.47401,28.74799 70.87401,31.49512 0,0 -40.41301,-12.05915 -71.19202,-84.85263 0,0 -33.18259,82.73251 -132.25,102.89261 0,0 67.07922,14.65191 132.56801,-49.5351"
             style="fill:#ffffff;fill-opacity:1;fill-rule:nonzero;stroke:none"
             id="path2499" />
        </g>
      </g>
    </g>
  </g>
</svg>
