<?xml version="1.0" encoding="UTF-8" standalone="no"?>
<!-- Created with Inkscape (http://www.inkscape.org/) -->

<svg
   xmlns:dc="http://purl.org/dc/elements/1.1/"
   xmlns:cc="http://creativecommons.org/ns#"
   xmlns:rdf="http://www.w3.org/1999/02/22-rdf-syntax-ns#"
   xmlns:svg="http://www.w3.org/2000/svg"
   xmlns="http://www.w3.org/2000/svg"
   xmlns:sodipodi="http://sodipodi.sourceforge.net/DTD/sodipodi-0.dtd"
   xmlns:inkscape="http://www.inkscape.org/namespaces/inkscape"
   width="125"
   height="125"
   id="svg2"
   version="1.1"
   inkscape:version="0.48.1 r9760"
   sodipodi:docname="logo_sl.svg"
   inkscape:export-filename="/home/erik/projekt/Biljetter/res/drawable-hdpi/logo_sl.png"
   inkscape:export-xdpi="77.760002"
   inkscape:export-ydpi="77.760002">
  <defs
     id="defs4" />
  <sodipodi:namedview
     id="base"
     pagecolor="#ffffff"
     bordercolor="#666666"
     borderopacity="1.0"
     inkscape:pageopacity="0.0"
     inkscape:pageshadow="2"
     inkscape:zoom="1.979899"
     inkscape:cx="110.44891"
     inkscape:cy="1.9902258"
     inkscape:document-units="px"
     inkscape:current-layer="layer1"
     showgrid="false"
     fit-margin-top="0"
     fit-margin-left="0"
     fit-margin-right="0"
     fit-margin-bottom="0"
     inkscape:window-width="1280"
     inkscape:window-height="776"
     inkscape:window-x="0"
     inkscape:window-y="24"
     inkscape:window-maximized="1" />
  <metadata
     id="metadata7">
    <rdf:RDF>
      <cc:Work
         rdf:about="">
        <dc:format>image/svg+xml</dc:format>
        <dc:type
           rdf:resource="http://purl.org/dc/dcmitype/StillImage" />
        <dc:title></dc:title>
      </cc:Work>
    </rdf:RDF>
  </metadata>
  <g
     inkscape:label="Layer 1"
     inkscape:groupmode="layer"
     id="layer1"
     transform="translate(-598.91839,-533.16206)">
    <path
       style="fill:#00a6ea;fill-opacity:1"
       d="m 645.91839,645.10811 c -16.37884,-4.28249 -33.09102,-17.76501 -40.19882,-32.43032 -5.55081,-11.45284 -6.80118,-16.14732 -6.80118,-25.53495 l 0,-8.46505 3.75,7.7e-4 3.75,7.7e-4 0.19647,7.41346 c 0.23448,8.84726 3.79592,20.32966 8.6576,27.91283 7.57856,11.82093 21.27386,21.23584 35.14593,24.16125 8.82624,1.86132 14.17376,1.86132 23,0 9.79624,-2.06588 18.54189,-6.66127 26.05779,-13.69202 11.13374,-10.41507 17.34395,-23.9058 17.74409,-38.54629 l 0.19812,-7.24923 3.25,-7.7e-4 3.25,-7.7e-4 0,8.18621 c 0,9.7246 -2.79562,20.80446 -7.27017,28.81379 -1.68996,3.025 -6.48303,8.87735 -10.65125,13.00523 -8.30623,8.22584 -17.9779,13.81293 -28.53868,16.48612 -7.49214,1.89645 -24.1768,1.86416 -31.5399,-0.061 z m 8,-10.05568 c -14.53453,-2.81381 -26.54374,-10.56544 -34.39386,-22.20029 -5.65708,-8.38451 -8.66795,-17.35718 -8.91531,-26.56846 l -0.19083,-7.10589 3.75,-0.31037 3.75,-0.31036 0,4.51114 c 0,24.69733 19.64016,44.60959 44,44.60959 24.60518,0 44,-19.94317 44,-45.24403 0,-3.86825 0.008,-3.87602 3.75,-3.56634 l 3.75,0.31037 -0.19083,7.10589 c -0.55476,20.65817 -14.67189,39.42147 -34.95808,46.46334 -5.73229,1.98983 -19.33103,3.27727 -24.35109,2.30541 z m -4.09106,-13.21248 c -15.30782,-5.05795 -26.25009,-18.91537 -27.59398,-34.94534 -1.15187,-13.73948 5.89254,-28.18325 17.53806,-35.95984 7.86835,-5.25428 12.94875,-6.53159 24.29053,-6.10714 7.90076,0.29568 10.28795,0.80751 15.34369,3.28978 20.88844,10.25582 28.62353,36.15788 16.81504,56.30755 -3.55875,6.07254 -12.73577,13.88659 -19.25738,16.39728 -7.76891,2.99087 -19.79879,3.44204 -27.13596,1.01771 z m 23.40712,-7.75419 c 6.08485,-2.07331 14.1168,-9.36562 17.40298,-15.80037 3.71143,-7.26746 4.27211,-17.99992 1.34547,-25.75469 -7.73595,-20.49811 -33.31327,-27.37119 -50.30688,-13.51837 -10.56173,8.60969 -14.50796,23.27464 -9.73184,36.16546 2.76397,7.46001 11.37454,16.42274 18.03788,18.77561 5.86804,2.07204 17.36763,2.1375 23.25239,0.13236 z m -30.01747,-14.03211 c -3.60098,-1.77563 -5.94676,-4.84568 -6.45577,-8.44902 -0.31142,-2.20452 0.0465,-2.45501 3.90718,-2.73434 3.12598,-0.22617 4.25,0.0634 4.25,1.09501 0,0.77138 0.86978,2.18965 1.93284,3.15171 2.25875,2.04414 7.54036,1.37599 8.48003,-1.07277 1.11968,-2.91783 -1.20907,-5.00258 -7.04758,-6.30918 -7.28434,-1.63017 -11.36529,-5.36581 -11.36529,-10.40362 0,-7.11433 8.32695,-12.7529 16.554,-11.2095 4.61201,0.86522 9.446,5.46018 9.446,8.97893 0,2.33974 -0.36816,2.57692 -4,2.57692 -2.84619,0 -4,-0.42253 -4,-1.46482 0,-3.63106 -8.06383,-4.41719 -9.40695,-0.91706 -0.99075,2.58184 1.11692,4.17987 7.17034,5.43656 7.61626,1.58113 11.23661,5.17225 11.23661,11.14589 0,2.39493 -0.65943,5.29588 -1.46539,6.44656 -3.45725,4.93591 -13.0262,6.79076 -19.23602,3.72873 z m 23.70141,-17.37586 0,-18 4.5,0 4.5,0 0,14.5 0,14.5 6.5,0 6.5,0 0,3.5 0,3.5 -11,0 -11,0 0,-18 z"
       id="path3000"
       inkscape:connector-curvature="0" />
    <path
       style="fill:#000000"
       d=""
       id="path2996"
       inkscape:connector-curvature="0" />
  </g>
</svg>
