<?xml version="1.0" encoding="UTF-8" standalone="no"?>
<!-- Created with Inkscape (http://www.inkscape.org/) -->

<svg
   xmlns:dc="http://purl.org/dc/elements/1.1/"
   xmlns:cc="http://creativecommons.org/ns#"
   xmlns:rdf="http://www.w3.org/1999/02/22-rdf-syntax-ns#"
   xmlns:svg="http://www.w3.org/2000/svg"
   xmlns="http://www.w3.org/2000/svg"
   xmlns:xlink="http://www.w3.org/1999/xlink"
   xmlns:sodipodi="http://sodipodi.sourceforge.net/DTD/sodipodi-0.dtd"
   xmlns:inkscape="http://www.inkscape.org/namespaces/inkscape"
   width="500"
   height="500"
   id="svg2"
   sodipodi:version="0.32"
   inkscape:version="0.48.1 r9760"
   sodipodi:docname="tickets.svg"
   inkscape:output_extension="org.inkscape.output.svg.inkscape"
   version="1.0"
   inkscape:export-filename="/home/erik/projekt/Tagbiljetter/res/drawable-ldpi/icon.png"
   inkscape:export-xdpi="5.7600002"
   inkscape:export-ydpi="5.7600002">
  <defs
     id="defs4">
    <linearGradient
       id="linearGradient4142">
      <stop
         style="stop-color:#000000;stop-opacity:1;"
         offset="0"
         id="stop4144" />
      <stop
         style="stop-color:#ffffff;stop-opacity:1;"
         offset="1"
         id="stop4146" />
    </linearGradient>
    <filter
       inkscape:collect="always"
       id="filter4148"
       color-interpolation-filters="sRGB">
      <feGaussianBlur
         inkscape:collect="always"
         stdDeviation="3.2032773"
         id="feGaussianBlur4150" />
    </filter>
    <filter
       inkscape:collect="always"
       id="filter5141"
       color-interpolation-filters="sRGB">
      <feGaussianBlur
         inkscape:collect="always"
         stdDeviation="2.0273402"
         id="feGaussianBlur5143" />
    </filter>
    <linearGradient
       inkscape:collect="always"
       xlink:href="#linearGradient4142"
       id="linearGradient4172"
       gradientUnits="userSpaceOnUse"
       x1="236.15916"
       y1="295.84775"
       x2="236.15916"
       y2="195.00174"
       gradientTransform="translate(-1.7301,-440.372)" />
    <mask
       maskUnits="userSpaceOnUse"
       id="mask4168">
      <rect
         style="fill:url(#linearGradient4172);fill-opacity:1;fill-rule:nonzero;stroke:#000000;stroke-width:1;stroke-miterlimit:4;stroke-opacity:1;stroke-dasharray:none"
         id="rect4170"
         width="261.24567"
         height="158.3045"
         x="103.80623"
         y="-218.91844"
         transform="scale(1,-1)" />
    </mask>
    <linearGradient
       inkscape:collect="always"
       xlink:href="#linearGradient4142"
       id="linearGradient3410"
       x1="211.86932"
       y1="485.44409"
       x2="213.4866"
       y2="136.10233"
       gradientUnits="userSpaceOnUse" />
    <linearGradient
       inkscape:collect="always"
       xlink:href="#linearGradient4142"
       id="linearGradient3416"
       gradientUnits="userSpaceOnUse"
       x1="211.86932"
       y1="485.44409"
       x2="213.4866"
       y2="136.10233"
       gradientTransform="matrix(0.644801,0,0,0.644801,40.996,-449.913)" />
    <mask
       maskUnits="userSpaceOnUse"
       id="mask3412">
      <rect
         style="fill:url(#linearGradient3416);fill-opacity:1;fill-rule:nonzero;stroke:none"
         id="rect3414"
         width="232.55588"
         height="153.29916"
         x="84.795738"
         y="-290.1972"
         transform="scale(1,-1)" />
    </mask>
    <linearGradient
       inkscape:collect="always"
       xlink:href="#linearGradient4142"
       id="linearGradient2328"
       x1="237.02423"
       y1="406.5744"
       x2="236.15918"
       y2="243.94466"
       gradientUnits="userSpaceOnUse" />
    <linearGradient
       inkscape:collect="always"
       xlink:href="#linearGradient4142"
       id="linearGradient2334"
       gradientUnits="userSpaceOnUse"
       x1="237.02423"
       y1="406.5744"
       x2="236.15918"
       y2="243.94466"
       gradientTransform="matrix(0.644801,0,0,0.644801,40.4746,-450.956)" />
    <mask
       maskUnits="userSpaceOnUse"
       id="mask2330">
      <rect
         style="fill:url(#linearGradient2334);fill-opacity:1;fill-rule:nonzero;stroke:none"
         id="rect2332"
         width="242.07927"
         height="148.92896"
         x="78.961807"
         y="-290.31329"
         transform="scale(1,-1)" />
    </mask>
  </defs>
  <sodipodi:namedview
     id="base"
     pagecolor="#ffffff"
     bordercolor="#666666"
     borderopacity="1.0"
     gridtolerance="10000"
     guidetolerance="10"
     objecttolerance="10"
     inkscape:pageopacity="0.0"
     inkscape:pageshadow="2"
     inkscape:zoom="1.136"
     inkscape:cx="250"
     inkscape:cy="250"
     inkscape:document-units="px"
     inkscape:current-layer="g5361"
     width="500px"
     height="500px"
     inkscape:window-width="1280"
     inkscape:window-height="776"
     inkscape:window-x="0"
     inkscape:window-y="24"
     showgrid="false"
     fit-margin-top="0"
     fit-margin-left="0"
     fit-margin-right="0"
     fit-margin-bottom="0"
     inkscape:window-maximized="1" />
  <metadata
     id="metadata7">
    <rdf:RDF>
      <cc:Work
         rdf:about="">
        <dc:format>image/svg+xml</dc:format>
        <dc:type
           rdf:resource="http://purl.org/dc/dcmitype/StillImage" />
        <dc:title></dc:title>
      </cc:Work>
    </rdf:RDF>
  </metadata>
  <g
     inkscape:label="Layer 1"
     inkscape:groupmode="layer"
     id="layer1"
     transform="translate(-78.262977,247.06493)">
    <g
       id="g5361"
       transform="matrix(1.55087,0,0,1.55087,-63.5793,-204.304)">
      <rect
         y="221.30573"
         x="119.59654"
         height="6.6709323"
         width="0"
         id="rect2181"
         style="fill:#ffcc00;fill-opacity:1;stroke:#000000;stroke-width:0.22681171;stroke-linecap:round;stroke-linejoin:round;stroke-miterlimit:4;stroke-opacity:1;stroke-dasharray:none" />
      <rect
         style="fill:#ffcc00;fill-opacity:1;stroke:#000000;stroke-width:0.22681171;stroke-linecap:round;stroke-linejoin:round;stroke-miterlimit:4;stroke-opacity:1;stroke-dasharray:none"
         id="rect3420"
         width="0"
         height="6.6709323"
         x="119.59654"
         y="221.30573" />
      <g
         style="font-size:56px;opacity:0.62777776;fill:#000000;filter:url(#filter5141)"
         id="g4158"
         transform="matrix(0.61786969,-0.211048,0.211048,0.61786969,52.216543,49.43779)">
        <path
           inkscape:connector-curvature="0"
           sodipodi:nodetypes="cccccccccccccsccccccccccccccccccccccccccccccccccccccccc"
           id="path4160"
           d="m 26.260504,126.66832 c 1.357251,3.04875 3.390157,6.0975 -0.05042,9.14625 2.100789,2.45583 1.853466,4.91167 -0.03665,7.3675 1.223973,2.65845 2.617262,5.3169 -0.03967,7.97534 2.133368,3.24764 1.793094,6.49527 -0.06196,9.74291 2.393908,2.59825 1.516009,5.19651 -0.04297,7.79477 1.79754,2.42688 2.141786,5.21709 -0.04763,8.64072 3.731565,3.34743 0.828171,5.36786 -0.04297,7.79475 2.245555,3.15846 1.689666,5.61655 -0.04289,7.78048 1.906473,2.01839 2.052651,4.03678 -0.03338,6.05518 2.336078,2.12247 1.600241,4.24495 -0.02886,6.36742 2.083495,2.78795 1.870298,5.5759 -0.0379,8.36385 3.062629,2.8342 1.788791,6.53568 -0.07153,10.35447 -0.17824,2.1241 1.480226,4.24821 1.425662,6.37232 -0.04905,1.9095 -1.841648,3.819 -1.492365,5.7285 2.972841,2.88659 0.667021,5.77319 -0.04774,8.65978 3.15433,4.03838 1.675929,8.07676 -0.06678,12.11514 2.113821,2.59666 1.833319,5.19332 -0.04294,7.78999 2.144861,3.45692 2.772365,6.91385 -0.05717,10.37078 3.686772,3.17335 0.89178,6.3467 -0.05248,9.52004 2.753366,3.17176 2.172967,6.34352 -0.05245,9.51528 1.10186,2.88342 3.556716,5.76685 -0.04768,8.65027 2.201095,2.84018 2.731526,5.68035 -0.04697,8.52053 l -0.0327,5.9323 446.428579,-1.05042 c -1.7411,-2.62603 -3.16084,-5.25206 0,-7.8781 -1.34622,-1.74727 -2.11159,-3.49455 0,-5.24183 -2.56213,-2.24651 -0.70021,-4.49301 0,-6.73952 -2.24401,-1.99689 -0.52001,-3.99379 0,-5.99068 -2.43104,-2.59379 -0.90983,-4.62298 0,-6.7395 -1.61373,-2.1217 -2.35057,-4.24339 0,-6.36508 -2.01615,-2.49612 -1.45933,-4.99224 0,-7.48835 -2.64931,-1.87209 -0.55405,-3.74417 0,-5.61626 -1.5597,-1.99689 -0.24131,-3.99379 0,-5.99068 -3.54825,-1.99689 -1.18226,-3.99378 0,-5.99067 -2.05674,-2.1217 -1.41203,-4.2434 0,-6.3651 -1.63227,-2.12169 -0.80109,-4.24339 0,-6.36508 -2.99201,-1.9969 -0.69337,-3.99379 0,-5.99069 -2.87227,-1.87208 -0.89184,-3.74416 0,-5.61624 -1.18583,-2.44928 -2.67989,-4.82149 0,-8.23719 -1.83009,-1.88048 -0.50015,-4.39297 0,-6.7395 -2.66941,-2.24651 -0.52038,-4.49301 0,-6.73952 -2.58629,-2.2465 -1.3163,-4.49301 0,-6.73951 -1.44011,-2.49611 -1.04237,-4.99223 0,-7.48834 -2.43104,-3.68992 -0.90984,-6.25063 0,-8.98601 -1.99452,-2.74573 -1.48408,-5.49146 0,-8.23719 -1.49767,-2.2465 -1.49767,-4.493 0,-6.7395 -2.45645,-2.1217 -0.87058,-4.2434 0,-6.3651 -1.84934,-2.1217 -0.46806,-4.2434 0,-6.36509 -2.07311,-1.99689 -1.39263,-3.99379 0,-5.99068 -1.44966,-2.3713 -0.42388,-4.74261 0,-7.11392 -1.46407,-2.2465 -0.40012,-4.49301 0,-6.73951 -1.79517,-1.15402 -0.5574,-3.52121 0,-5.61626 -2.41135,-1.56712 -0.25615,-3.13425 0,-4.70137 l -445.378159,2.10084"
           style="font-size:56px;fill:#000000;fill-rule:evenodd;stroke:#000000;stroke-width:1px;stroke-linecap:butt;stroke-linejoin:miter;stroke-opacity:1" />
        <path
           inkscape:connector-curvature="0"
           sodipodi:nodetypes="cccccccccc"
           id="path4162"
           d="m 41.522491,153.97924 0,139.27336 c 10.623632,-3.69566 18.583307,5.95308 19.031142,13.84083 l 371.972317,-2.59516 c 1.20665,-10.45337 8.0484,-16.05264 21.6263,-16.43599 l 0.86505,-134.08304 c -13.31279,-0.1598 -21.26456,-7.93051 -22.49135,-18.16609 L 65.743944,136.6782 c -1.622836,11.79285 -7.931966,17.0685 -23.356401,16.43598 l -0.865052,0"
           style="font-size:56px;fill:#000000;fill-rule:evenodd;stroke:#000000;stroke-width:1px;stroke-linecap:butt;stroke-linejoin:miter;stroke-opacity:1" />
      </g>
      <g
         transform="matrix(0.61786969,-0.211048,0.211048,0.61786969,48.827609,47.178021)"
         id="g3159">
        <path
           inkscape:connector-curvature="0"
           style="fill:#ffcc00;fill-rule:evenodd;stroke:#000000;stroke-width:1px;stroke-linecap:butt;stroke-linejoin:miter;stroke-opacity:1"
           d="m 26.260504,126.66832 c 1.357251,3.04875 3.390157,6.0975 -0.05042,9.14625 2.100789,2.45583 1.853466,4.91167 -0.03665,7.3675 1.223973,2.65845 2.617262,5.3169 -0.03967,7.97534 2.133368,3.24764 1.793094,6.49527 -0.06196,9.74291 2.393908,2.59825 1.516009,5.19651 -0.04297,7.79477 1.79754,2.42688 2.141786,5.21709 -0.04763,8.64072 3.731565,3.34743 0.828171,5.36786 -0.04297,7.79475 2.245555,3.15846 1.689666,5.61655 -0.04289,7.78048 1.906473,2.01839 2.052651,4.03678 -0.03338,6.05518 2.336078,2.12247 1.600241,4.24495 -0.02886,6.36742 2.083495,2.78795 1.870298,5.5759 -0.0379,8.36385 3.062629,2.8342 1.788791,6.53568 -0.07153,10.35447 -0.17824,2.1241 1.480226,4.24821 1.425662,6.37232 -0.04905,1.9095 -1.841648,3.819 -1.492365,5.7285 2.972841,2.88659 0.667021,5.77319 -0.04774,8.65978 3.15433,4.03838 1.675929,8.07676 -0.06678,12.11514 2.113821,2.59666 1.833319,5.19332 -0.04294,7.78999 2.144861,3.45692 2.772365,6.91385 -0.05717,10.37078 3.686772,3.17335 0.89178,6.3467 -0.05248,9.52004 2.753366,3.17176 2.172967,6.34352 -0.05245,9.51528 1.10186,2.88342 3.556716,5.76685 -0.04768,8.65027 2.201095,2.84018 2.731526,5.68035 -0.04697,8.52053 l -0.0327,5.9323 446.428579,-1.05042 c -1.7411,-2.62603 -3.16084,-5.25206 0,-7.8781 -1.34622,-1.74727 -2.11159,-3.49455 0,-5.24183 -2.56213,-2.24651 -0.70021,-4.49301 0,-6.73952 -2.24401,-1.99689 -0.52001,-3.99379 0,-5.99068 -2.43104,-2.59379 -0.90983,-4.62298 0,-6.7395 -1.61373,-2.1217 -2.35057,-4.24339 0,-6.36508 -2.01615,-2.49612 -1.45933,-4.99224 0,-7.48835 -2.64931,-1.87209 -0.55405,-3.74417 0,-5.61626 -1.5597,-1.99689 -0.24131,-3.99379 0,-5.99068 -3.54825,-1.99689 -1.18226,-3.99378 0,-5.99067 -2.05674,-2.1217 -1.41203,-4.2434 0,-6.3651 -1.63227,-2.12169 -0.80109,-4.24339 0,-6.36508 -2.99201,-1.9969 -0.69337,-3.99379 0,-5.99069 -2.87227,-1.87208 -0.89184,-3.74416 0,-5.61624 -1.18583,-2.44928 -2.67989,-4.82149 0,-8.23719 -1.83009,-1.88048 -0.50015,-4.39297 0,-6.7395 -2.66941,-2.24651 -0.52038,-4.49301 0,-6.73952 -2.58629,-2.2465 -1.3163,-4.49301 0,-6.73951 -1.44011,-2.49611 -1.04237,-4.99223 0,-7.48834 -2.43104,-3.68992 -0.90984,-6.25063 0,-8.98601 -1.99452,-2.74573 -1.48408,-5.49146 0,-8.23719 -1.49767,-2.2465 -1.49767,-4.493 0,-6.7395 -2.45645,-2.1217 -0.87058,-4.2434 0,-6.3651 -1.84934,-2.1217 -0.46806,-4.2434 0,-6.36509 -2.07311,-1.99689 -1.39263,-3.99379 0,-5.99068 -1.44966,-2.3713 -0.42388,-4.74261 0,-7.11392 -1.46407,-2.2465 -0.40012,-4.49301 0,-6.73951 -1.79517,-1.15402 -0.5574,-3.52121 0,-5.61626 -2.41135,-1.56712 -0.25615,-3.13425 0,-4.70137 l -445.378159,2.10084"
           id="path3155"
           sodipodi:nodetypes="cccccccccccccsccccccccccccccccccccccccccccccccccccccccc" />
        <path
           inkscape:connector-curvature="0"
           style="fill:#ffdd55;fill-rule:evenodd;stroke:#000000;stroke-width:1px;stroke-linecap:butt;stroke-linejoin:miter;stroke-opacity:1"
           d="m 41.522491,153.97924 0,139.27336 c 10.623632,-3.69566 18.583307,5.95308 19.031142,13.84083 l 371.972317,-2.59516 c 1.20665,-10.45337 8.0484,-16.05264 21.6263,-16.43599 l 0.86505,-134.08304 c -13.31279,-0.1598 -21.26456,-7.93051 -22.49135,-18.16609 L 65.743944,136.6782 c -1.622836,11.79285 -7.931966,17.0685 -23.356401,16.43598 l -0.865052,0"
           id="path3157"
           sodipodi:nodetypes="cccccccccc" />
      </g>
      <g
         style="opacity:0.68888891;fill:#000000;filter:url(#filter4148)"
         id="g3169"
         transform="matrix(0.65291914,0,0,0.65291914,95.258227,-5.0946021)">
        <path
           inkscape:connector-curvature="0"
           style="fill:#000000;fill-rule:evenodd;stroke:#000000;stroke-width:1px;stroke-linecap:butt;stroke-linejoin:miter;stroke-opacity:1"
           d="m 26.260504,126.66832 c 1.357251,3.04875 3.390157,6.0975 -0.05042,9.14625 2.100789,2.45583 1.853466,4.91167 -0.03665,7.3675 1.223973,2.65845 2.617262,5.3169 -0.03967,7.97534 2.133368,3.24764 1.793094,6.49527 -0.06196,9.74291 2.393908,2.59825 1.516009,5.19651 -0.04297,7.79477 1.79754,2.42688 2.141786,5.21709 -0.04763,8.64072 3.731565,3.34743 0.828171,5.36786 -0.04297,7.79475 2.245555,3.15846 1.689666,5.61655 -0.04289,7.78048 1.906473,2.01839 2.052651,4.03678 -0.03338,6.05518 2.336078,2.12247 1.600241,4.24495 -0.02886,6.36742 2.083495,2.78795 1.870298,5.5759 -0.0379,8.36385 3.062629,2.8342 1.788791,6.53568 -0.07153,10.35447 -0.17824,2.1241 1.480226,4.24821 1.425662,6.37232 -0.04905,1.9095 -1.841648,3.819 -1.492365,5.7285 2.972841,2.88659 0.667021,5.77319 -0.04774,8.65978 3.15433,4.03838 1.675929,8.07676 -0.06678,12.11514 2.113821,2.59666 1.833319,5.19332 -0.04294,7.78999 2.144861,3.45692 2.772365,6.91385 -0.05717,10.37078 3.686772,3.17335 0.89178,6.3467 -0.05248,9.52004 2.753366,3.17176 2.172967,6.34352 -0.05245,9.51528 1.10186,2.88342 3.556716,5.76685 -0.04768,8.65027 2.201095,2.84018 2.731526,5.68035 -0.04697,8.52053 l -0.0327,5.9323 446.428579,-1.05042 c -1.7411,-2.62603 -3.16084,-5.25206 0,-7.8781 -1.34622,-1.74727 -2.11159,-3.49455 0,-5.24183 -2.56213,-2.24651 -0.70021,-4.49301 0,-6.73952 -2.24401,-1.99689 -0.52001,-3.99379 0,-5.99068 -2.43104,-2.59379 -0.90983,-4.62298 0,-6.7395 -1.61373,-2.1217 -2.35057,-4.24339 0,-6.36508 -2.01615,-2.49612 -1.45933,-4.99224 0,-7.48835 -2.64931,-1.87209 -0.55405,-3.74417 0,-5.61626 -1.5597,-1.99689 -0.24131,-3.99379 0,-5.99068 -3.54825,-1.99689 -1.18226,-3.99378 0,-5.99067 -2.05674,-2.1217 -1.41203,-4.2434 0,-6.3651 -1.63227,-2.12169 -0.80109,-4.24339 0,-6.36508 -2.99201,-1.9969 -0.69337,-3.99379 0,-5.99069 -2.87227,-1.87208 -0.89184,-3.74416 0,-5.61624 -1.18583,-2.44928 -2.67989,-4.82149 0,-8.23719 -1.83009,-1.88048 -0.50015,-4.39297 0,-6.7395 -2.66941,-2.24651 -0.52038,-4.49301 0,-6.73952 -2.58629,-2.2465 -1.3163,-4.49301 0,-6.73951 -1.44011,-2.49611 -1.04237,-4.99223 0,-7.48834 -2.43104,-3.68992 -0.90984,-6.25063 0,-8.98601 -1.99452,-2.74573 -1.48408,-5.49146 0,-8.23719 -1.49767,-2.2465 -1.49767,-4.493 0,-6.7395 -2.45645,-2.1217 -0.87058,-4.2434 0,-6.3651 -1.84934,-2.1217 -0.46806,-4.2434 0,-6.36509 -2.07311,-1.99689 -1.39263,-3.99379 0,-5.99068 -1.44966,-2.3713 -0.42388,-4.74261 0,-7.11392 -1.46407,-2.2465 -0.40012,-4.49301 0,-6.73951 -1.79517,-1.15402 -0.5574,-3.52121 0,-5.61626 -2.41135,-1.56712 -0.25615,-3.13425 0,-4.70137 l -445.378159,2.10084"
           id="path3171"
           sodipodi:nodetypes="cccccccccccccsccccccccccccccccccccccccccccccccccccccccc" />
        <path
           inkscape:connector-curvature="0"
           style="fill:#000000;fill-rule:evenodd;stroke:#000000;stroke-width:1px;stroke-linecap:butt;stroke-linejoin:miter;stroke-opacity:1"
           d="m 41.522491,153.97924 0,139.27336 c 10.623632,-3.69566 18.583307,5.95308 19.031142,13.84083 l 371.972317,-2.59516 c 1.20665,-10.45337 8.0484,-16.05264 21.6263,-16.43599 l 0.86505,-134.08304 c -13.31279,-0.1598 -21.26456,-7.93051 -22.49135,-18.16609 L 65.743944,136.6782 c -1.622836,11.79285 -7.931966,17.0685 -23.356401,16.43598 l -0.865052,0"
           id="path3173"
           sodipodi:nodetypes="cccccccccc" />
      </g>
      <g
         transform="matrix(0.65291914,0,0,0.65291914,90.739697,-8.4828158)"
         id="g3163">
        <path
           inkscape:connector-curvature="0"
           sodipodi:nodetypes="cccccccccccccsccccccccccccccccccccccccccccccccccccccccc"
           id="path3165"
           d="m 26.260504,126.66832 c 1.357251,3.04875 3.390157,6.0975 -0.05042,9.14625 2.100789,2.45583 1.853466,4.91167 -0.03665,7.3675 1.223973,2.65845 2.617262,5.3169 -0.03967,7.97534 2.133368,3.24764 1.793094,6.49527 -0.06196,9.74291 2.393908,2.59825 1.516009,5.19651 -0.04297,7.79477 1.79754,2.42688 2.141786,5.21709 -0.04763,8.64072 3.731565,3.34743 0.828171,5.36786 -0.04297,7.79475 2.245555,3.15846 1.689666,5.61655 -0.04289,7.78048 1.906473,2.01839 2.052651,4.03678 -0.03338,6.05518 2.336078,2.12247 1.600241,4.24495 -0.02886,6.36742 2.083495,2.78795 1.870298,5.5759 -0.0379,8.36385 3.062629,2.8342 1.788791,6.53568 -0.07153,10.35447 -0.17824,2.1241 1.480226,4.24821 1.425662,6.37232 -0.04905,1.9095 -1.841648,3.819 -1.492365,5.7285 2.972841,2.88659 0.667021,5.77319 -0.04774,8.65978 3.15433,4.03838 1.675929,8.07676 -0.06678,12.11514 2.113821,2.59666 1.833319,5.19332 -0.04294,7.78999 2.144861,3.45692 2.772365,6.91385 -0.05717,10.37078 3.686772,3.17335 0.89178,6.3467 -0.05248,9.52004 2.753366,3.17176 2.172967,6.34352 -0.05245,9.51528 1.10186,2.88342 3.556716,5.76685 -0.04768,8.65027 2.201095,2.84018 2.731526,5.68035 -0.04697,8.52053 l -0.0327,5.9323 446.428579,-1.05042 c -1.7411,-2.62603 -3.16084,-5.25206 0,-7.8781 -1.34622,-1.74727 -2.11159,-3.49455 0,-5.24183 -2.56213,-2.24651 -0.70021,-4.49301 0,-6.73952 -2.24401,-1.99689 -0.52001,-3.99379 0,-5.99068 -2.43104,-2.59379 -0.90983,-4.62298 0,-6.7395 -1.61373,-2.1217 -2.35057,-4.24339 0,-6.36508 -2.01615,-2.49612 -1.45933,-4.99224 0,-7.48835 -2.64931,-1.87209 -0.55405,-3.74417 0,-5.61626 -1.5597,-1.99689 -0.24131,-3.99379 0,-5.99068 -3.54825,-1.99689 -1.18226,-3.99378 0,-5.99067 -2.05674,-2.1217 -1.41203,-4.2434 0,-6.3651 -1.63227,-2.12169 -0.80109,-4.24339 0,-6.36508 -2.99201,-1.9969 -0.69337,-3.99379 0,-5.99069 -2.87227,-1.87208 -0.89184,-3.74416 0,-5.61624 -1.18583,-2.44928 -2.67989,-4.82149 0,-8.23719 -1.83009,-1.88048 -0.50015,-4.39297 0,-6.7395 -2.66941,-2.24651 -0.52038,-4.49301 0,-6.73952 -2.58629,-2.2465 -1.3163,-4.49301 0,-6.73951 -1.44011,-2.49611 -1.04237,-4.99223 0,-7.48834 -2.43104,-3.68992 -0.90984,-6.25063 0,-8.98601 -1.99452,-2.74573 -1.48408,-5.49146 0,-8.23719 -1.49767,-2.2465 -1.49767,-4.493 0,-6.7395 -2.45645,-2.1217 -0.87058,-4.2434 0,-6.3651 -1.84934,-2.1217 -0.46806,-4.2434 0,-6.36509 -2.07311,-1.99689 -1.39263,-3.99379 0,-5.99068 -1.44966,-2.3713 -0.42388,-4.74261 0,-7.11392 -1.46407,-2.2465 -0.40012,-4.49301 0,-6.73951 -1.79517,-1.15402 -0.5574,-3.52121 0,-5.61626 -2.41135,-1.56712 -0.25615,-3.13425 0,-4.70137 l -445.378159,2.10084"
           style="fill:#ffcc00;fill-rule:evenodd;stroke:#000000;stroke-width:1px;stroke-linecap:butt;stroke-linejoin:miter;stroke-opacity:1" />
        <path
           inkscape:connector-curvature="0"
           sodipodi:nodetypes="cccccccccc"
           id="path3167"
           d="m 41.522491,153.97924 0,139.27336 c 10.623632,-3.69566 18.583307,5.95308 19.031142,13.84083 l 371.972317,-2.59516 c 1.20665,-10.45337 8.0484,-16.05264 21.6263,-16.43599 l 0.86505,-134.08304 c -13.31279,-0.1598 -21.26456,-7.93051 -22.49135,-18.16609 L 65.743944,136.6782 c -1.622836,11.79285 -7.931966,17.0685 -23.356401,16.43598 l -0.865052,0"
           style="fill:#ffdd55;fill-rule:evenodd;stroke:#000000;stroke-width:1px;stroke-linecap:butt;stroke-linejoin:miter;stroke-opacity:1" />
      </g>
      <text
         id="text5163"
         y="129.33076"
         x="178.28519"
         style="font-size:47.01021957px;font-weight:bold;font-family:courier"
         xml:space="preserve"><tspan
           y="129.33076"
           x="178.28519"
           id="tspan5165"
           sodipodi:role="line">ADMIT</tspan></text>
      <text
         xml:space="preserve"
         style="font-size:47.01021957px;font-weight:bold;font-family:courier"
         x="205.39604"
         y="169.99704"
         id="text5167"><tspan
           sodipodi:role="line"
           id="tspan5169"
           x="205.39604"
           y="169.99704">ONE</tspan></text>
      <g
         transform="matrix(0.61786969,-0.211048,0.211048,0.61786969,52.216543,49.43779)"
         id="g3422"
         style="font-size:56px;opacity:0.62777776;fill:#000000;filter:url(#filter5141)">
        <path
           inkscape:connector-curvature="0"
           style="font-size:56px;fill:#000000;fill-rule:evenodd;stroke:#000000;stroke-width:1px;stroke-linecap:butt;stroke-linejoin:miter;stroke-opacity:1"
           d="m 26.260504,126.66832 c 1.357251,3.04875 3.390157,6.0975 -0.05042,9.14625 2.100789,2.45583 1.853466,4.91167 -0.03665,7.3675 1.223973,2.65845 2.617262,5.3169 -0.03967,7.97534 2.133368,3.24764 1.793094,6.49527 -0.06196,9.74291 2.393908,2.59825 1.516009,5.19651 -0.04297,7.79477 1.79754,2.42688 2.141786,5.21709 -0.04763,8.64072 3.731565,3.34743 0.828171,5.36786 -0.04297,7.79475 2.245555,3.15846 1.689666,5.61655 -0.04289,7.78048 1.906473,2.01839 2.052651,4.03678 -0.03338,6.05518 2.336078,2.12247 1.600241,4.24495 -0.02886,6.36742 2.083495,2.78795 1.870298,5.5759 -0.0379,8.36385 3.062629,2.8342 1.788791,6.53568 -0.07153,10.35447 -0.17824,2.1241 1.480226,4.24821 1.425662,6.37232 -0.04905,1.9095 -1.841648,3.819 -1.492365,5.7285 2.972841,2.88659 0.667021,5.77319 -0.04774,8.65978 3.15433,4.03838 1.675929,8.07676 -0.06678,12.11514 2.113821,2.59666 1.833319,5.19332 -0.04294,7.78999 2.144861,3.45692 2.772365,6.91385 -0.05717,10.37078 3.686772,3.17335 0.89178,6.3467 -0.05248,9.52004 2.753366,3.17176 2.172967,6.34352 -0.05245,9.51528 1.10186,2.88342 3.556716,5.76685 -0.04768,8.65027 2.201095,2.84018 2.731526,5.68035 -0.04697,8.52053 l -0.0327,5.9323 446.428579,-1.05042 c -1.7411,-2.62603 -3.16084,-5.25206 0,-7.8781 -1.34622,-1.74727 -2.11159,-3.49455 0,-5.24183 -2.56213,-2.24651 -0.70021,-4.49301 0,-6.73952 -2.24401,-1.99689 -0.52001,-3.99379 0,-5.99068 -2.43104,-2.59379 -0.90983,-4.62298 0,-6.7395 -1.61373,-2.1217 -2.35057,-4.24339 0,-6.36508 -2.01615,-2.49612 -1.45933,-4.99224 0,-7.48835 -2.64931,-1.87209 -0.55405,-3.74417 0,-5.61626 -1.5597,-1.99689 -0.24131,-3.99379 0,-5.99068 -3.54825,-1.99689 -1.18226,-3.99378 0,-5.99067 -2.05674,-2.1217 -1.41203,-4.2434 0,-6.3651 -1.63227,-2.12169 -0.80109,-4.24339 0,-6.36508 -2.99201,-1.9969 -0.69337,-3.99379 0,-5.99069 -2.87227,-1.87208 -0.89184,-3.74416 0,-5.61624 -1.18583,-2.44928 -2.67989,-4.82149 0,-8.23719 -1.83009,-1.88048 -0.50015,-4.39297 0,-6.7395 -2.66941,-2.24651 -0.52038,-4.49301 0,-6.73952 -2.58629,-2.2465 -1.3163,-4.49301 0,-6.73951 -1.44011,-2.49611 -1.04237,-4.99223 0,-7.48834 -2.43104,-3.68992 -0.90984,-6.25063 0,-8.98601 -1.99452,-2.74573 -1.48408,-5.49146 0,-8.23719 -1.49767,-2.2465 -1.49767,-4.493 0,-6.7395 -2.45645,-2.1217 -0.87058,-4.2434 0,-6.3651 -1.84934,-2.1217 -0.46806,-4.2434 0,-6.36509 -2.07311,-1.99689 -1.39263,-3.99379 0,-5.99068 -1.44966,-2.3713 -0.42388,-4.74261 0,-7.11392 -1.46407,-2.2465 -0.40012,-4.49301 0,-6.73951 -1.79517,-1.15402 -0.5574,-3.52121 0,-5.61626 -2.41135,-1.56712 -0.25615,-3.13425 0,-4.70137 l -445.378159,2.10084"
           id="path3424"
           sodipodi:nodetypes="cccccccccccccsccccccccccccccccccccccccccccccccccccccccc" />
        <path
           inkscape:connector-curvature="0"
           style="font-size:56px;fill:#000000;fill-rule:evenodd;stroke:#000000;stroke-width:1px;stroke-linecap:butt;stroke-linejoin:miter;stroke-opacity:1"
           d="m 41.522491,153.97924 0,139.27336 c 10.623632,-3.69566 18.583307,5.95308 19.031142,13.84083 l 371.972317,-2.59516 c 1.20665,-10.45337 8.0484,-16.05264 21.6263,-16.43599 l 0.86505,-134.08304 c -13.31279,-0.1598 -21.26456,-7.93051 -22.49135,-18.16609 L 65.743944,136.6782 c -1.622836,11.79285 -7.931966,17.0685 -23.356401,16.43598 l -0.865052,0"
           id="path3426"
           sodipodi:nodetypes="cccccccccc" />
      </g>
      <g
         id="g3428"
         transform="matrix(0.61786969,-0.211048,0.211048,0.61786969,48.827609,47.178021)">
        <path
           inkscape:connector-curvature="0"
           sodipodi:nodetypes="cccccccccccccsccccccccccccccccccccccccccccccccccccccccc"
           id="path3430"
           d="m 26.260504,126.66832 c 1.357251,3.04875 3.390157,6.0975 -0.05042,9.14625 2.100789,2.45583 1.853466,4.91167 -0.03665,7.3675 1.223973,2.65845 2.617262,5.3169 -0.03967,7.97534 2.133368,3.24764 1.793094,6.49527 -0.06196,9.74291 2.393908,2.59825 1.516009,5.19651 -0.04297,7.79477 1.79754,2.42688 2.141786,5.21709 -0.04763,8.64072 3.731565,3.34743 0.828171,5.36786 -0.04297,7.79475 2.245555,3.15846 1.689666,5.61655 -0.04289,7.78048 1.906473,2.01839 2.052651,4.03678 -0.03338,6.05518 2.336078,2.12247 1.600241,4.24495 -0.02886,6.36742 2.083495,2.78795 1.870298,5.5759 -0.0379,8.36385 3.062629,2.8342 1.788791,6.53568 -0.07153,10.35447 -0.17824,2.1241 1.480226,4.24821 1.425662,6.37232 -0.04905,1.9095 -1.841648,3.819 -1.492365,5.7285 2.972841,2.88659 0.667021,5.77319 -0.04774,8.65978 3.15433,4.03838 1.675929,8.07676 -0.06678,12.11514 2.113821,2.59666 1.833319,5.19332 -0.04294,7.78999 2.144861,3.45692 2.772365,6.91385 -0.05717,10.37078 3.686772,3.17335 0.89178,6.3467 -0.05248,9.52004 2.753366,3.17176 2.172967,6.34352 -0.05245,9.51528 1.10186,2.88342 3.556716,5.76685 -0.04768,8.65027 2.201095,2.84018 2.731526,5.68035 -0.04697,8.52053 l -0.0327,5.9323 446.428579,-1.05042 c -1.7411,-2.62603 -3.16084,-5.25206 0,-7.8781 -1.34622,-1.74727 -2.11159,-3.49455 0,-5.24183 -2.56213,-2.24651 -0.70021,-4.49301 0,-6.73952 -2.24401,-1.99689 -0.52001,-3.99379 0,-5.99068 -2.43104,-2.59379 -0.90983,-4.62298 0,-6.7395 -1.61373,-2.1217 -2.35057,-4.24339 0,-6.36508 -2.01615,-2.49612 -1.45933,-4.99224 0,-7.48835 -2.64931,-1.87209 -0.55405,-3.74417 0,-5.61626 -1.5597,-1.99689 -0.24131,-3.99379 0,-5.99068 -3.54825,-1.99689 -1.18226,-3.99378 0,-5.99067 -2.05674,-2.1217 -1.41203,-4.2434 0,-6.3651 -1.63227,-2.12169 -0.80109,-4.24339 0,-6.36508 -2.99201,-1.9969 -0.69337,-3.99379 0,-5.99069 -2.87227,-1.87208 -0.89184,-3.74416 0,-5.61624 -1.18583,-2.44928 -2.67989,-4.82149 0,-8.23719 -1.83009,-1.88048 -0.50015,-4.39297 0,-6.7395 -2.66941,-2.24651 -0.52038,-4.49301 0,-6.73952 -2.58629,-2.2465 -1.3163,-4.49301 0,-6.73951 -1.44011,-2.49611 -1.04237,-4.99223 0,-7.48834 -2.43104,-3.68992 -0.90984,-6.25063 0,-8.98601 -1.99452,-2.74573 -1.48408,-5.49146 0,-8.23719 -1.49767,-2.2465 -1.49767,-4.493 0,-6.7395 -2.45645,-2.1217 -0.87058,-4.2434 0,-6.3651 -1.84934,-2.1217 -0.46806,-4.2434 0,-6.36509 -2.07311,-1.99689 -1.39263,-3.99379 0,-5.99068 -1.44966,-2.3713 -0.42388,-4.74261 0,-7.11392 -1.46407,-2.2465 -0.40012,-4.49301 0,-6.73951 -1.79517,-1.15402 -0.5574,-3.52121 0,-5.61626 -2.41135,-1.56712 -0.25615,-3.13425 0,-4.70137 l -445.378159,2.10084"
           style="fill:#ffcc00;fill-rule:evenodd;stroke:#000000;stroke-width:1px;stroke-linecap:butt;stroke-linejoin:miter;stroke-opacity:1" />
        <path
           inkscape:connector-curvature="0"
           sodipodi:nodetypes="cccccccccc"
           id="path3432"
           d="m 41.522491,153.97924 0,139.27336 c 10.623632,-3.69566 18.583307,5.95308 19.031142,13.84083 l 371.972317,-2.59516 c 1.20665,-10.45337 8.0484,-16.05264 21.6263,-16.43599 l 0.86505,-134.08304 c -13.31279,-0.1598 -21.26456,-7.93051 -22.49135,-18.16609 L 65.743944,136.6782 c -1.622836,11.79285 -7.931966,17.0685 -23.356401,16.43598 l -0.865052,0"
           style="fill:#ffdd55;fill-rule:evenodd;stroke:#000000;stroke-width:1px;stroke-linecap:butt;stroke-linejoin:miter;stroke-opacity:1" />
      </g>
      <g
         transform="matrix(0.65291914,0,0,0.65291914,95.258227,-5.0946021)"
         id="g3434"
         style="opacity:0.68888891;fill:#000000;filter:url(#filter4148)">
        <path
           inkscape:connector-curvature="0"
           sodipodi:nodetypes="cccccccccccccsccccccccccccccccccccccccccccccccccccccccc"
           id="path3436"
           d="m 26.260504,126.66832 c 1.357251,3.04875 3.390157,6.0975 -0.05042,9.14625 2.100789,2.45583 1.853466,4.91167 -0.03665,7.3675 1.223973,2.65845 2.617262,5.3169 -0.03967,7.97534 2.133368,3.24764 1.793094,6.49527 -0.06196,9.74291 2.393908,2.59825 1.516009,5.19651 -0.04297,7.79477 1.79754,2.42688 2.141786,5.21709 -0.04763,8.64072 3.731565,3.34743 0.828171,5.36786 -0.04297,7.79475 2.245555,3.15846 1.689666,5.61655 -0.04289,7.78048 1.906473,2.01839 2.052651,4.03678 -0.03338,6.05518 2.336078,2.12247 1.600241,4.24495 -0.02886,6.36742 2.083495,2.78795 1.870298,5.5759 -0.0379,8.36385 3.062629,2.8342 1.788791,6.53568 -0.07153,10.35447 -0.17824,2.1241 1.480226,4.24821 1.425662,6.37232 -0.04905,1.9095 -1.841648,3.819 -1.492365,5.7285 2.972841,2.88659 0.667021,5.77319 -0.04774,8.65978 3.15433,4.03838 1.675929,8.07676 -0.06678,12.11514 2.113821,2.59666 1.833319,5.19332 -0.04294,7.78999 2.144861,3.45692 2.772365,6.91385 -0.05717,10.37078 3.686772,3.17335 0.89178,6.3467 -0.05248,9.52004 2.753366,3.17176 2.172967,6.34352 -0.05245,9.51528 1.10186,2.88342 3.556716,5.76685 -0.04768,8.65027 2.201095,2.84018 2.731526,5.68035 -0.04697,8.52053 l -0.0327,5.9323 446.428579,-1.05042 c -1.7411,-2.62603 -3.16084,-5.25206 0,-7.8781 -1.34622,-1.74727 -2.11159,-3.49455 0,-5.24183 -2.56213,-2.24651 -0.70021,-4.49301 0,-6.73952 -2.24401,-1.99689 -0.52001,-3.99379 0,-5.99068 -2.43104,-2.59379 -0.90983,-4.62298 0,-6.7395 -1.61373,-2.1217 -2.35057,-4.24339 0,-6.36508 -2.01615,-2.49612 -1.45933,-4.99224 0,-7.48835 -2.64931,-1.87209 -0.55405,-3.74417 0,-5.61626 -1.5597,-1.99689 -0.24131,-3.99379 0,-5.99068 -3.54825,-1.99689 -1.18226,-3.99378 0,-5.99067 -2.05674,-2.1217 -1.41203,-4.2434 0,-6.3651 -1.63227,-2.12169 -0.80109,-4.24339 0,-6.36508 -2.99201,-1.9969 -0.69337,-3.99379 0,-5.99069 -2.87227,-1.87208 -0.89184,-3.74416 0,-5.61624 -1.18583,-2.44928 -2.67989,-4.82149 0,-8.23719 -1.83009,-1.88048 -0.50015,-4.39297 0,-6.7395 -2.66941,-2.24651 -0.52038,-4.49301 0,-6.73952 -2.58629,-2.2465 -1.3163,-4.49301 0,-6.73951 -1.44011,-2.49611 -1.04237,-4.99223 0,-7.48834 -2.43104,-3.68992 -0.90984,-6.25063 0,-8.98601 -1.99452,-2.74573 -1.48408,-5.49146 0,-8.23719 -1.49767,-2.2465 -1.49767,-4.493 0,-6.7395 -2.45645,-2.1217 -0.87058,-4.2434 0,-6.3651 -1.84934,-2.1217 -0.46806,-4.2434 0,-6.36509 -2.07311,-1.99689 -1.39263,-3.99379 0,-5.99068 -1.44966,-2.3713 -0.42388,-4.74261 0,-7.11392 -1.46407,-2.2465 -0.40012,-4.49301 0,-6.73951 -1.79517,-1.15402 -0.5574,-3.52121 0,-5.61626 -2.41135,-1.56712 -0.25615,-3.13425 0,-4.70137 l -445.378159,2.10084"
           style="fill:#000000;fill-rule:evenodd;stroke:#000000;stroke-width:1px;stroke-linecap:butt;stroke-linejoin:miter;stroke-opacity:1" />
        <path
           inkscape:connector-curvature="0"
           sodipodi:nodetypes="cccccccccc"
           id="path3438"
           d="m 41.522491,153.97924 0,139.27336 c 10.623632,-3.69566 18.583307,5.95308 19.031142,13.84083 l 371.972317,-2.59516 c 1.20665,-10.45337 8.0484,-16.05264 21.6263,-16.43599 l 0.86505,-134.08304 c -13.31279,-0.1598 -21.26456,-7.93051 -22.49135,-18.16609 L 65.743944,136.6782 c -1.622836,11.79285 -7.931966,17.0685 -23.356401,16.43598 l -0.865052,0"
           style="fill:#000000;fill-rule:evenodd;stroke:#000000;stroke-width:1px;stroke-linecap:butt;stroke-linejoin:miter;stroke-opacity:1" />
      </g>
      <g
         id="g3440"
         transform="matrix(0.65291914,0,0,0.65291914,90.739697,-8.4828158)">
        <path
           inkscape:connector-curvature="0"
           style="fill:#ffcc00;fill-rule:evenodd;stroke:#000000;stroke-width:1px;stroke-linecap:butt;stroke-linejoin:miter;stroke-opacity:1"
           d="m 26.260504,126.66832 c 1.357251,3.04875 3.390157,6.0975 -0.05042,9.14625 2.100789,2.45583 1.853466,4.91167 -0.03665,7.3675 1.223973,2.65845 2.617262,5.3169 -0.03967,7.97534 2.133368,3.24764 1.793094,6.49527 -0.06196,9.74291 2.393908,2.59825 1.516009,5.19651 -0.04297,7.79477 1.79754,2.42688 2.141786,5.21709 -0.04763,8.64072 3.731565,3.34743 0.828171,5.36786 -0.04297,7.79475 2.245555,3.15846 1.689666,5.61655 -0.04289,7.78048 1.906473,2.01839 2.052651,4.03678 -0.03338,6.05518 2.336078,2.12247 1.600241,4.24495 -0.02886,6.36742 2.083495,2.78795 1.870298,5.5759 -0.0379,8.36385 3.062629,2.8342 1.788791,6.53568 -0.07153,10.35447 -0.17824,2.1241 1.480226,4.24821 1.425662,6.37232 -0.04905,1.9095 -1.841648,3.819 -1.492365,5.7285 2.972841,2.88659 0.667021,5.77319 -0.04774,8.65978 3.15433,4.03838 1.675929,8.07676 -0.06678,12.11514 2.113821,2.59666 1.833319,5.19332 -0.04294,7.78999 2.144861,3.45692 2.772365,6.91385 -0.05717,10.37078 3.686772,3.17335 0.89178,6.3467 -0.05248,9.52004 2.753366,3.17176 2.172967,6.34352 -0.05245,9.51528 1.10186,2.88342 3.556716,5.76685 -0.04768,8.65027 2.201095,2.84018 2.731526,5.68035 -0.04697,8.52053 l -0.0327,5.9323 446.428579,-1.05042 c -1.7411,-2.62603 -3.16084,-5.25206 0,-7.8781 -1.34622,-1.74727 -2.11159,-3.49455 0,-5.24183 -2.56213,-2.24651 -0.70021,-4.49301 0,-6.73952 -2.24401,-1.99689 -0.52001,-3.99379 0,-5.99068 -2.43104,-2.59379 -0.90983,-4.62298 0,-6.7395 -1.61373,-2.1217 -2.35057,-4.24339 0,-6.36508 -2.01615,-2.49612 -1.45933,-4.99224 0,-7.48835 -2.64931,-1.87209 -0.55405,-3.74417 0,-5.61626 -1.5597,-1.99689 -0.24131,-3.99379 0,-5.99068 -3.54825,-1.99689 -1.18226,-3.99378 0,-5.99067 -2.05674,-2.1217 -1.41203,-4.2434 0,-6.3651 -1.63227,-2.12169 -0.80109,-4.24339 0,-6.36508 -2.99201,-1.9969 -0.69337,-3.99379 0,-5.99069 -2.87227,-1.87208 -0.89184,-3.74416 0,-5.61624 -1.18583,-2.44928 -2.67989,-4.82149 0,-8.23719 -1.83009,-1.88048 -0.50015,-4.39297 0,-6.7395 -2.66941,-2.24651 -0.52038,-4.49301 0,-6.73952 -2.58629,-2.2465 -1.3163,-4.49301 0,-6.73951 -1.44011,-2.49611 -1.04237,-4.99223 0,-7.48834 -2.43104,-3.68992 -0.90984,-6.25063 0,-8.98601 -1.99452,-2.74573 -1.48408,-5.49146 0,-8.23719 -1.49767,-2.2465 -1.49767,-4.493 0,-6.7395 -2.45645,-2.1217 -0.87058,-4.2434 0,-6.3651 -1.84934,-2.1217 -0.46806,-4.2434 0,-6.36509 -2.07311,-1.99689 -1.39263,-3.99379 0,-5.99068 -1.44966,-2.3713 -0.42388,-4.74261 0,-7.11392 -1.46407,-2.2465 -0.40012,-4.49301 0,-6.73951 -1.79517,-1.15402 -0.5574,-3.52121 0,-5.61626 -2.41135,-1.56712 -0.25615,-3.13425 0,-4.70137 l -445.378159,2.10084"
           id="path3442"
           sodipodi:nodetypes="cccccccccccccsccccccccccccccccccccccccccccccccccccccccc" />
        <path
           inkscape:connector-curvature="0"
           style="fill:#ffdd55;fill-rule:evenodd;stroke:#000000;stroke-width:1px;stroke-linecap:butt;stroke-linejoin:miter;stroke-opacity:1"
           d="m 41.522491,153.97924 0,139.27336 c 10.623632,-3.69566 18.583307,5.95308 19.031142,13.84083 l 371.972317,-2.59516 c 1.20665,-10.45337 8.0484,-16.05264 21.6263,-16.43599 l 0.86505,-134.08304 c -13.31279,-0.1598 -21.26456,-7.93051 -22.49135,-18.16609 L 65.743944,136.6782 c -1.622836,11.79285 -7.931966,17.0685 -23.356401,16.43598 l -0.865052,0"
           id="path3444"
           sodipodi:nodetypes="cccccccccc" />
      </g>
      <text
         xml:space="preserve"
         style="font-size:40.84514999px;font-style:normal;font-weight:bold;-inkscape-font-specification:Sans Bold"
         x="135.71034"
         y="146.68602"
         id="text3127"><tspan
           sodipodi:role="line"
           id="tspan3129"
           x="135.71034"
           y="146.68602">BILJETTER</tspan></text>
    </g>
  </g>
</svg>
